<?xml version="1.0" encoding="UTF-8" standalone="no"?>
<svg
   xmlns:dc="http://purl.org/dc/elements/1.1/"
   xmlns:cc="http://creativecommons.org/ns#"
   xmlns:rdf="http://www.w3.org/1999/02/22-rdf-syntax-ns#"
   xmlns:svg="http://www.w3.org/2000/svg"
   xmlns="http://www.w3.org/2000/svg"
   viewBox="0 0 900 1600"
   height="1600"
   width="900"
   xml:space="preserve"
   id="svg2"
   version="1.1"><metadata
     id="metadata8"><rdf:RDF><cc:Work
         rdf:about=""><dc:format>image/svg+xml</dc:format><dc:type
           rdf:resource="http://purl.org/dc/dcmitype/StillImage" /></cc:Work></rdf:RDF></metadata><defs
     id="defs6"><linearGradient
       id="linearGradient20"
       spreadMethod="pad"
       gradientTransform="matrix(-6883.65,11922.8,11922.8,6883.65,6816.83,38.5999)"
       gradientUnits="userSpaceOnUse"
       y2="0"
       x2="1"
       y1="0"
       x1="0"><stop
         id="stop16"
         offset="0"
         style="stop-opacity:1;stop-color:#000000" /><stop
         id="stop18"
         offset="1"
         style="stop-opacity:1;stop-color:#08234c" /></linearGradient></defs><g
     transform="matrix(1.3333333,0,0,-1.3333333,0,1600)"
     id="g10"><g
       transform="scale(0.1)"
       id="g12"><path
         id="path14"
         style="fill:#05142b;fill-opacity:1;fill-rule:nonzero;stroke:none"
         d="M 0,0 H 6750 V 12000 H 0 Z" /><path
         id="path22"
         style="fill:url(#linearGradient20);fill-opacity:1;fill-rule:nonzero;stroke:none"
         d="M 0,0 H 6750 V 12000 H 0 Z" /><path
         id="path24"
         style="fill:#8a8c99;fill-opacity:1;fill-rule:nonzero;stroke:none"
         d="M 6475.16,2827.06 5367.38,1781.7 l 548.44,91.7 z" /><path
         id="path26"
         style="fill:#0c1f3b;fill-opacity:1;fill-rule:nonzero;stroke:none"
         d="M 7191.46,1482.8 6475.16,2827.06 5915.82,1873.4 Z" /><path
         id="path28"
         style="fill:#2f3a61;fill-opacity:1;fill-rule:nonzero;stroke:none"
         d="M 5915.82,1873.4 7191.46,1482.8 5367.38,1781.7 Z" /><path
         id="path30"
         style="fill:#8a8c99;fill-opacity:1;fill-rule:nonzero;stroke:none"
         d="M 6016.27,39.6016 3805.43,2756.8 3923.22,1483.4 Z" /><path
         id="path32"
         style="fill:#0c1f3b;fill-opacity:1;fill-rule:nonzero;stroke:none"
         d="M 2657.75,-2019.7 6016.27,39.6016 3923.22,1483.4 Z" /><path
         id="path34"
         style="fill:#0c1f3b;fill-opacity:1;fill-rule:nonzero;stroke:none"
         d="m 2320.27,1868.6 1485.16,888.2 117.8,-1273.4 z" /><path
         id="path36"
         style="fill:#2f3a61;fill-opacity:1;fill-rule:nonzero;stroke:none"
         d="M 2657.75,-2019.7 2320.27,1868.6 3923.23,1483.4 Z" /><path
         id="path38"
         style="fill:#2f3a61;fill-opacity:1;fill-rule:nonzero;stroke:none"
         d="m 6576.27,8141.6 1038.27,216.22 -598.68,-960.74 -1130.4,-60.17 690.81,804.69" /><path
         id="path40"
         style="fill:#8a8c99;fill-opacity:1;fill-rule:nonzero;stroke:none"
         d="m 5885.46,7336.91 690.81,804.69 -494.98,838.34 z" /><path
         id="path42"
         style="fill:#0c1f3b;fill-opacity:1;fill-rule:nonzero;stroke:none"
         d="m 6081.29,8979.94 494.98,-838.34 1038.27,216.22 z" /><path
         id="path44"
         style="fill:#8a8c99;fill-opacity:1;fill-rule:nonzero;stroke:none"
         d="M 874.906,5167.63 225.824,4607.42 721.492,3402.55 1312.55,4103.8 874.906,5167.63" /><path
         id="path46"
         style="fill:#0c1f3b;fill-opacity:1;fill-rule:nonzero;stroke:none"
         d="m -629.566,4548.7 855.39,58.72 495.668,-1204.87 -913.41,82.33 -437.648,1063.82" /><path
         id="path48"
         style="fill:#2f3a61;fill-opacity:1;fill-rule:nonzero;stroke:none"
         d="M 42.7422,5052.45 874.906,5167.63 225.824,4607.42 -629.566,4548.7 42.7422,5052.45" /><path
         id="path50"
         style="fill:#8a8c99;fill-opacity:1;fill-rule:nonzero;stroke:none"
         d="m 938.844,10973.9 78.346,-420 643.16,-88.9 -153.64,430.4 -567.866,78.5" /><path
         id="path52"
         style="fill:#0c1f3b;fill-opacity:1;fill-rule:nonzero;stroke:none"
         d="m 827.852,10170.8 189.338,383.1 643.16,-88.9 -264.63,-372.7 -567.868,78.5" /><path
         id="path54"
         style="fill:#2f3a61;fill-opacity:1;fill-rule:nonzero;stroke:none"
         d="m 779.641,10586.7 159.203,387.2 78.346,-420 -189.338,-383.1 -48.211,415.9" /><path
         id="path56"
         style="fill:#8a8c99;fill-opacity:1;fill-rule:nonzero;stroke:none"
         d="m 3033.13,12653.9 3481.15,-1616.4 -2255.29,563.6 z" /><path
         id="path58"
         style="fill:#0c1f3b;fill-opacity:1;fill-rule:nonzero;stroke:none"
         d="m 4258.99,11601.1 -624.79,-1068 -601.07,2120.8 z" /><path
         id="path60"
         style="fill:#2f3a61;fill-opacity:1;fill-rule:nonzero;stroke:none"
         d="m 3634.2,10533.1 2880.08,504.4 -2255.29,563.6 z" /><path
         id="path62"
         style="fill:#0c1f3b;fill-opacity:1;fill-rule:nonzero;stroke:none"
         d="M 1108.23,516.602 -2651.74,-253.801 -503.336,634.102 Z" /><path
         id="path64"
         style="fill:#2f3a61;fill-opacity:1;fill-rule:nonzero;stroke:none"
         d="M -503.336,634.102 -636.055,1864.3 1108.23,516.602 Z" /></g></g></svg>